<svg width="350" height="350" viewBox="0 0 350 350" fill="none" xmlns="http://www.w3.org/2000/svg">
<rect width="350" height="350" rx="15" fill="#FF4747"/>
<path d="M107.326 71.776V80.64H102.526V76H86.7175V80.64H81.9175L81.9495 71.776H82.8455C84.1895 71.7333 85.1388 70.752 85.6935 68.832C86.2482 66.912 86.5895 64.1707 86.7175 60.608L86.9735 53.6H104.19V71.776H107.326ZM91.2935 61.088C91.1868 63.7547 90.9628 65.9947 90.6215 67.808C90.2802 69.6 89.7575 70.9227 89.0535 71.776H99.0695V57.824H91.3895L91.2935 61.088ZM118.277 76.256C116.463 76.256 114.831 75.8827 113.381 75.136C111.951 74.368 110.831 73.312 110.021 71.968C109.21 70.624 108.805 69.0987 108.805 67.392C108.805 65.6853 109.21 64.16 110.021 62.816C110.831 61.472 111.951 60.4267 113.381 59.68C114.831 58.912 116.463 58.528 118.277 58.528C120.09 58.528 121.711 58.912 123.141 59.68C124.57 60.4267 125.69 61.472 126.501 62.816C127.311 64.16 127.717 65.6853 127.717 67.392C127.717 69.0987 127.311 70.624 126.501 71.968C125.69 73.312 124.57 74.368 123.141 75.136C121.711 75.8827 120.09 76.256 118.277 76.256ZM118.277 72.16C119.557 72.16 120.602 71.7333 121.413 70.88C122.245 70.0053 122.661 68.8427 122.661 67.392C122.661 65.9413 122.245 64.7893 121.413 63.936C120.602 63.0613 119.557 62.624 118.277 62.624C116.997 62.624 115.941 63.0613 115.109 63.936C114.277 64.7893 113.861 65.9413 113.861 67.392C113.861 68.8427 114.277 70.0053 115.109 70.88C115.941 71.7333 116.997 72.16 118.277 72.16ZM147.95 76V65.696L142.798 74.336H140.686L135.662 65.664V76H131.15V58.784H136.366L141.87 68.736L147.726 58.784H152.398L152.462 76H147.95ZM163.932 58.528C166.598 58.528 168.646 59.168 170.076 60.448C171.505 61.7067 172.22 63.616 172.22 66.176V76H167.548V73.856C166.609 75.456 164.86 76.256 162.3 76.256C160.977 76.256 159.825 76.032 158.844 75.584C157.884 75.136 157.148 74.5173 156.636 73.728C156.124 72.9387 155.868 72.0427 155.868 71.04C155.868 69.44 156.465 68.1813 157.66 67.264C158.876 66.3467 160.742 65.888 163.26 65.888H167.228C167.228 64.8 166.897 63.968 166.236 63.392C165.574 62.7947 164.582 62.496 163.26 62.496C162.342 62.496 161.436 62.6453 160.54 62.944C159.665 63.2213 158.918 63.6053 158.3 64.096L156.508 60.608C157.446 59.9467 158.566 59.4347 159.868 59.072C161.19 58.7093 162.545 58.528 163.932 58.528ZM163.548 72.896C164.401 72.896 165.158 72.704 165.82 72.32C166.481 71.9147 166.95 71.328 167.228 70.56V68.8H163.804C161.756 68.8 160.732 69.472 160.732 70.816C160.732 71.456 160.977 71.968 161.468 72.352C161.98 72.7147 162.673 72.896 163.548 72.896ZM202.828 58.784V76H176.556V58.784H181.516V71.904H187.244V58.784H192.204V71.904H197.868V58.784H202.828ZM207.619 58.784H212.579V65.504H220.067V58.784H225.059V76H220.067V69.568H212.579V76H207.619V58.784ZM246.574 67.456C246.574 67.52 246.542 67.968 246.478 68.8H233.454C233.688 69.8667 234.243 70.7093 235.118 71.328C235.992 71.9467 237.08 72.256 238.382 72.256C239.278 72.256 240.067 72.128 240.75 71.872C241.454 71.5947 242.104 71.168 242.702 70.592L245.358 73.472C243.736 75.328 241.368 76.256 238.254 76.256C236.312 76.256 234.595 75.8827 233.102 75.136C231.608 74.368 230.456 73.312 229.646 71.968C228.835 70.624 228.43 69.0987 228.43 67.392C228.43 65.7067 228.824 64.192 229.614 62.848C230.424 61.4827 231.523 60.4267 232.91 59.68C234.318 58.912 235.886 58.528 237.614 58.528C239.299 58.528 240.824 58.8907 242.19 59.616C243.555 60.3413 244.622 61.3867 245.39 62.752C246.179 64.096 246.574 65.664 246.574 67.456ZM237.646 62.304C236.515 62.304 235.566 62.624 234.798 63.264C234.03 63.904 233.56 64.7787 233.39 65.888H241.87C241.699 64.8 241.23 63.936 240.462 63.296C239.694 62.6347 238.755 62.304 237.646 62.304ZM267.136 67.456C267.136 67.52 267.104 67.968 267.04 68.8H254.016C254.251 69.8667 254.805 70.7093 255.68 71.328C256.555 71.9467 257.643 72.256 258.944 72.256C259.84 72.256 260.629 72.128 261.312 71.872C262.016 71.5947 262.667 71.168 263.264 70.592L265.92 73.472C264.299 75.328 261.931 76.256 258.816 76.256C256.875 76.256 255.157 75.8827 253.664 75.136C252.171 74.368 251.019 73.312 250.208 71.968C249.397 70.624 248.992 69.0987 248.992 67.392C248.992 65.7067 249.387 64.192 250.176 62.848C250.987 61.4827 252.085 60.4267 253.472 59.68C254.88 58.912 256.448 58.528 258.176 58.528C259.861 58.528 261.387 58.8907 262.752 59.616C264.117 60.3413 265.184 61.3867 265.952 62.752C266.741 64.096 267.136 65.664 267.136 67.456ZM258.208 62.304C257.077 62.304 256.128 62.624 255.36 63.264C254.592 63.904 254.123 64.7787 253.952 65.888H262.432C262.261 64.8 261.792 63.936 261.024 63.296C260.256 62.6347 259.317 62.304 258.208 62.304ZM116.271 103.04C117.295 103.36 118.084 103.851 118.639 104.512C119.215 105.173 119.503 105.963 119.503 106.88C119.503 107.968 119.13 108.928 118.383 109.76C117.636 110.571 116.612 111.2 115.311 111.648C114.01 112.096 112.538 112.32 110.895 112.32C109.551 112.32 108.228 112.181 106.927 111.904C105.626 111.627 104.42 111.211 103.311 110.656L104.655 107.168C106.468 108.043 108.474 108.48 110.671 108.48C111.844 108.48 112.762 108.309 113.423 107.968C114.106 107.605 114.447 107.104 114.447 106.464C114.447 105.909 114.212 105.493 113.743 105.216C113.274 104.917 112.591 104.768 111.695 104.768H108.175V101.664H111.247C112.122 101.664 112.794 101.525 113.263 101.248C113.732 100.971 113.967 100.565 113.967 100.032C113.967 99.4773 113.668 99.0507 113.071 98.752C112.495 98.4533 111.663 98.304 110.575 98.304C108.911 98.304 107.098 98.6987 105.135 99.488L103.919 96.032C106.308 94.9867 108.634 94.464 110.895 94.464C112.452 94.464 113.839 94.656 115.055 95.04C116.292 95.424 117.263 95.9893 117.967 96.736C118.671 97.4613 119.023 98.3147 119.023 99.296C119.023 100.107 118.778 100.843 118.287 101.504C117.796 102.144 117.124 102.656 116.271 103.04ZM129.822 94.528C132.489 94.528 134.537 95.168 135.966 96.448C137.396 97.7067 138.11 99.616 138.11 102.176V112H133.438V109.856C132.5 111.456 130.75 112.256 128.19 112.256C126.868 112.256 125.716 112.032 124.734 111.584C123.774 111.136 123.038 110.517 122.526 109.728C122.014 108.939 121.758 108.043 121.758 107.04C121.758 105.44 122.356 104.181 123.55 103.264C124.766 102.347 126.633 101.888 129.15 101.888H133.118C133.118 100.8 132.788 99.968 132.126 99.392C131.465 98.7947 130.473 98.496 129.15 98.496C128.233 98.496 127.326 98.6453 126.43 98.944C125.556 99.2213 124.809 99.6053 124.19 100.096L122.398 96.608C123.337 95.9467 124.457 95.4347 125.758 95.072C127.081 94.7093 128.436 94.528 129.822 94.528ZM129.438 108.896C130.292 108.896 131.049 108.704 131.71 108.32C132.372 107.915 132.841 107.328 133.118 106.56V104.8H129.694C127.646 104.8 126.622 105.472 126.622 106.816C126.622 107.456 126.868 107.968 127.358 108.352C127.87 108.715 128.564 108.896 129.438 108.896ZM161.743 107.904V115.712H157.103V112H145.007V115.712H140.367V107.904H141.071C142.138 107.883 142.874 107.253 143.279 106.016C143.684 104.779 143.94 103.019 144.047 100.736L144.271 94.784H159.279V107.904H161.743ZM148.559 101.088C148.495 102.837 148.356 104.267 148.143 105.376C147.951 106.485 147.578 107.328 147.023 107.904H154.287V98.88H148.655L148.559 101.088ZM171.572 94.528C174.239 94.528 176.287 95.168 177.716 96.448C179.146 97.7067 179.86 99.616 179.86 102.176V112H175.188V109.856C174.25 111.456 172.5 112.256 169.94 112.256C168.618 112.256 167.466 112.032 166.484 111.584C165.524 111.136 164.788 110.517 164.276 109.728C163.764 108.939 163.508 108.043 163.508 107.04C163.508 105.44 164.106 104.181 165.3 103.264C166.516 102.347 168.383 101.888 170.9 101.888H174.868C174.868 100.8 174.538 99.968 173.876 99.392C173.215 98.7947 172.223 98.496 170.9 98.496C169.983 98.496 169.076 98.6453 168.18 98.944C167.306 99.2213 166.559 99.6053 165.94 100.096L164.148 96.608C165.087 95.9467 166.207 95.4347 167.508 95.072C168.831 94.7093 170.186 94.528 171.572 94.528ZM171.188 108.896C172.042 108.896 172.799 108.704 173.46 108.32C174.122 107.915 174.591 107.328 174.868 106.56V104.8H171.444C169.396 104.8 168.372 105.472 168.372 106.816C168.372 107.456 168.618 107.968 169.108 108.352C169.62 108.715 170.314 108.896 171.188 108.896ZM184.197 94.784H189.157V101.504H196.645V94.784H201.637V112H196.645V105.568H189.157V112H184.197V94.784ZM206.416 94.784H211.376V105.024L219.76 94.784H224.336V112H219.376V101.76L211.024 112H206.416V94.784ZM245.87 103.456C245.87 103.52 245.838 103.968 245.774 104.8H232.75C232.985 105.867 233.54 106.709 234.414 107.328C235.289 107.947 236.377 108.256 237.678 108.256C238.574 108.256 239.364 108.128 240.046 107.872C240.75 107.595 241.401 107.168 241.998 106.592L244.654 109.472C243.033 111.328 240.665 112.256 237.55 112.256C235.609 112.256 233.892 111.883 232.398 111.136C230.905 110.368 229.753 109.312 228.942 107.968C228.132 106.624 227.726 105.099 227.726 103.392C227.726 101.707 228.121 100.192 228.91 98.848C229.721 97.4827 230.82 96.4267 232.206 95.68C233.614 94.912 235.182 94.528 236.91 94.528C238.596 94.528 240.121 94.8907 241.486 95.616C242.852 96.3413 243.918 97.3867 244.686 98.752C245.476 100.096 245.87 101.664 245.87 103.456ZM236.942 98.304C235.812 98.304 234.862 98.624 234.094 99.264C233.326 99.904 232.857 100.779 232.686 101.888H241.166C240.996 100.8 240.526 99.936 239.758 99.296C238.99 98.6347 238.052 98.304 236.942 98.304Z" fill="black" fill-opacity="0.35"/>
<g filter="url(#filter0_d_810_100)">
<rect x="97" y="131" width="126" height="169" fill="#2D4F81"/>
<rect x="101" y="131" width="125" height="169" fill="white"/>
<rect x="105" y="131" width="125" height="169" fill="black" fill-opacity="0.05"/>
<rect x="111" y="131" width="125" height="169" fill="white"/>
<path d="M117 131H237C245.284 131 252 137.716 252 146V285C252 293.284 245.284 300 237 300H117V131Z" fill="#2D4F81"/>
<path fill-rule="evenodd" clip-rule="evenodd" d="M183 171H173.765V188.714H165.235V171H156V221H165.235V202.571H173.765V216C173.765 218.761 176.004 221 178.765 221H181.992L188.933 263H197.892L202.11 237.334L206.108 263H215.067L223 215H215.067L210.502 242.641L206.179 215H198.494L193.919 242.271L190.273 219.219C189.888 216.789 187.794 215 185.334 215H183V171Z" fill="black" fill-opacity="0.1"/>
<path d="M207 288L224.5 295.5L207 303L207 288Z" fill="#F9FFCF"/>
<path d="M207 288L207 295.5L207 303L130.498 301.134C127.44 301.06 125 298.559 125 295.5C125 292.441 127.44 289.94 130.498 289.866L207 288Z" fill="#05214A"/>
<path d="M225.5 295.503L218.5 298.078L218.5 292.93L225.5 295.503Z" fill="#303030"/>
</g>
<defs>
<filter id="filter0_d_810_100" x="88.6" y="131" width="171.8" height="189.4" filterUnits="userSpaceOnUse" color-interpolation-filters="sRGB">
<feFlood flood-opacity="0" result="BackgroundImageFix"/>
<feColorMatrix in="SourceAlpha" type="matrix" values="0 0 0 0 0 0 0 0 0 0 0 0 0 0 0 0 0 0 127 0" result="hardAlpha"/>
<feOffset dy="9"/>
<feGaussianBlur stdDeviation="4.2"/>
<feComposite in2="hardAlpha" operator="out"/>
<feColorMatrix type="matrix" values="0 0 0 0 0 0 0 0 0 0 0 0 0 0 0 0 0 0 0.25 0"/>
<feBlend mode="normal" in2="BackgroundImageFix" result="effect1_dropShadow_810_100"/>
<feBlend mode="normal" in="SourceGraphic" in2="effect1_dropShadow_810_100" result="shape"/>
</filter>
</defs>
</svg>
