<svg width="350" height="350" viewBox="0 0 350 350" fill="none" xmlns="http://www.w3.org/2000/svg">
<rect width="350" height="350" rx="15" fill="#FFA559"/>
<path d="M120.341 44.824H109.685L109.717 63H104.565V40.6H120.373L120.341 44.824ZM135.162 45.784V63H130.17V49.88H124.73L124.57 52.92C124.485 55.1813 124.271 57.0587 123.93 58.552C123.589 60.0453 123.034 61.2187 122.266 62.072C121.498 62.9253 120.431 63.352 119.066 63.352C118.341 63.352 117.477 63.224 116.474 62.968L116.73 58.872C117.071 58.9147 117.317 58.936 117.466 58.936C118.213 58.936 118.767 58.6693 119.13 58.136C119.514 57.5813 119.77 56.888 119.898 56.056C120.026 55.2027 120.122 54.0827 120.186 52.696L120.442 45.784H135.162ZM146.651 45.528C149.317 45.528 151.365 46.168 152.795 47.448C154.224 48.7067 154.939 50.616 154.939 53.176V63H150.267V60.856C149.328 62.456 147.579 63.256 145.019 63.256C143.696 63.256 142.544 63.032 141.562 62.584C140.603 62.136 139.867 61.5173 139.355 60.728C138.843 59.9387 138.587 59.0427 138.587 58.04C138.587 56.44 139.184 55.1813 140.379 54.264C141.595 53.3467 143.461 52.888 145.979 52.888H149.947C149.947 51.8 149.616 50.968 148.955 50.392C148.293 49.7947 147.301 49.496 145.979 49.496C145.061 49.496 144.155 49.6453 143.259 49.944C142.384 50.2213 141.637 50.6053 141.019 51.096L139.227 47.608C140.165 46.9467 141.285 46.4347 142.587 46.072C143.909 45.7093 145.264 45.528 146.651 45.528ZM146.267 59.896C147.12 59.896 147.877 59.704 148.539 59.32C149.2 58.9147 149.669 58.328 149.947 57.56V55.8H146.523C144.475 55.8 143.451 56.472 143.451 57.816C143.451 58.456 143.696 58.968 144.187 59.352C144.699 59.7147 145.392 59.896 146.267 59.896ZM172.427 54.008C174.454 54.6907 175.467 56.056 175.467 58.104C175.467 59.6613 174.88 60.8667 173.707 61.72C172.534 62.5733 170.784 63 168.459 63H159.275V45.784H168.075C170.23 45.784 171.915 46.1787 173.131 46.968C174.347 47.736 174.955 48.824 174.955 50.232C174.955 51.0853 174.731 51.8427 174.283 52.504C173.856 53.144 173.238 53.6453 172.427 54.008ZM163.851 52.856H167.627C169.376 52.856 170.251 52.2373 170.251 51C170.251 49.784 169.376 49.176 167.627 49.176H163.851V52.856ZM168.043 59.608C169.878 59.608 170.795 58.9787 170.795 57.72C170.795 57.0587 170.582 56.5787 170.155 56.28C169.728 55.96 169.056 55.8 168.139 55.8H163.851V59.608H168.043ZM179.181 45.784H184.141V52.504H191.629V45.784H196.621V63H191.629V56.568H184.141V63H179.181V45.784ZM210.456 51.288C212.696 51.3093 214.392 51.8107 215.544 52.792C216.696 53.7733 217.272 55.1813 217.272 57.016C217.272 58.936 216.621 60.4187 215.32 61.464C214.019 62.5093 212.173 63.032 209.784 63.032L201.4 63V45.784H206.36V51.288H210.456ZM219.128 45.784H224.088V63H219.128V45.784ZM209.336 59.48C210.296 59.5013 211.032 59.2987 211.544 58.872C212.056 58.4453 212.312 57.8053 212.312 56.952C212.312 56.12 212.056 55.512 211.544 55.128C211.053 54.744 210.317 54.5413 209.336 54.52L206.36 54.488V59.48H209.336ZM228.9 45.784H233.86V56.024L242.244 45.784H246.82V63H241.86V52.76L233.508 63H228.9V45.784ZM237.54 43.928C233.785 43.928 231.897 42.2747 231.876 38.968H235.14C235.161 39.7147 235.364 40.3013 235.748 40.728C236.153 41.1333 236.74 41.336 237.508 41.336C238.276 41.336 238.863 41.1333 239.268 40.728C239.695 40.3013 239.908 39.7147 239.908 38.968H243.236C243.215 42.2747 241.316 43.928 237.54 43.928ZM151.576 90.256C149.742 90.256 148.088 89.8827 146.616 89.136C145.166 88.368 144.024 87.312 143.192 85.968C142.382 84.624 141.976 83.0987 141.976 81.392C141.976 79.6853 142.382 78.16 143.192 76.816C144.024 75.472 145.166 74.4267 146.616 73.68C148.088 72.912 149.742 72.528 151.576 72.528C153.39 72.528 154.968 72.912 156.312 73.68C157.678 74.4267 158.67 75.504 159.288 76.912L155.416 78.992C154.52 77.4133 153.23 76.624 151.544 76.624C150.243 76.624 149.166 77.0507 148.312 77.904C147.459 78.7573 147.032 79.92 147.032 81.392C147.032 82.864 147.459 84.0267 148.312 84.88C149.166 85.7333 150.243 86.16 151.544 86.16C153.251 86.16 154.542 85.3707 155.416 83.792L159.288 85.904C158.67 87.2693 157.678 88.336 156.312 89.104C154.968 89.872 153.39 90.256 151.576 90.256ZM169.01 72.528C171.677 72.528 173.725 73.168 175.154 74.448C176.583 75.7067 177.298 77.616 177.298 80.176V90H172.626V87.856C171.687 89.456 169.938 90.256 167.378 90.256C166.055 90.256 164.903 90.032 163.922 89.584C162.962 89.136 162.226 88.5173 161.714 87.728C161.202 86.9387 160.946 86.0427 160.946 85.04C160.946 83.44 161.543 82.1813 162.738 81.264C163.954 80.3467 165.821 79.888 168.338 79.888H172.306C172.306 78.8 171.975 77.968 171.314 77.392C170.653 76.7947 169.661 76.496 168.338 76.496C167.421 76.496 166.514 76.6453 165.618 76.944C164.743 77.2213 163.997 77.6053 163.378 78.096L161.586 74.608C162.525 73.9467 163.645 73.4347 164.946 73.072C166.269 72.7093 167.623 72.528 169.01 72.528ZM168.626 86.896C169.479 86.896 170.237 86.704 170.898 86.32C171.559 85.9147 172.029 85.328 172.306 84.56V82.8H168.882C166.834 82.8 165.81 83.472 165.81 84.816C165.81 85.456 166.055 85.968 166.546 86.352C167.058 86.7147 167.751 86.896 168.626 86.896ZM181.634 72.784H186.594V83.024L194.978 72.784H199.554V90H194.594V79.76L186.242 90H181.634V72.784ZM190.274 70.928C186.52 70.928 184.632 69.2747 184.61 65.968H187.874C187.896 66.7147 188.098 67.3013 188.482 67.728C188.888 68.1333 189.474 68.336 190.242 68.336C191.01 68.336 191.597 68.1333 192.002 67.728C192.429 67.3013 192.642 66.7147 192.642 65.968H195.97C195.949 69.2747 194.05 70.928 190.274 70.928ZM218.817 76.88H212.993V90H208.033V76.88H202.209V72.784H218.817V76.88Z" fill="black" fill-opacity="0.35"/>
<g filter="url(#filter0_d_810_98)">
<path fill-rule="evenodd" clip-rule="evenodd" d="M94.3906 183.896H256.092V296.175C256.092 304.46 249.376 311.175 241.092 311.175H109.391C101.106 311.175 94.3906 304.46 94.3906 296.175V183.896ZM226.474 311.175L182.447 311.175V247.529C182.447 242.006 186.924 237.529 192.447 237.529L216.474 237.529C221.997 237.529 226.474 242.006 226.474 247.529V311.175ZM147.434 276.754C155.718 276.754 162.434 270.038 162.434 261.754L162.434 230.115C162.434 221.831 155.718 215.115 147.434 215.115H135.808C127.524 215.115 120.808 221.831 120.808 230.115L120.808 261.754C120.808 270.038 127.524 276.754 135.808 276.754H147.434Z" fill="#484848"/>
<path d="M73.0897 187.788C71.1587 187.788 70.3489 185.322 71.9039 184.177L174.183 108.873C174.888 108.354 175.849 108.354 176.554 108.873L278.833 184.177C280.388 185.322 279.578 187.788 277.647 187.788H73.0897Z" fill="#484848"/>
<path d="M224.637 130.515C224.637 127.754 226.875 125.515 229.637 125.515H242.017C244.779 125.515 247.017 127.754 247.017 130.515V174.168H224.637V130.515Z" fill="#484848"/>
</g>
<defs>
<filter id="filter0_d_810_98" x="62.7859" y="104.184" width="225.164" height="219.292" filterUnits="userSpaceOnUse" color-interpolation-filters="sRGB">
<feFlood flood-opacity="0" result="BackgroundImageFix"/>
<feColorMatrix in="SourceAlpha" type="matrix" values="0 0 0 0 0 0 0 0 0 0 0 0 0 0 0 0 0 0 127 0" result="hardAlpha"/>
<feOffset dy="4"/>
<feGaussianBlur stdDeviation="4.15"/>
<feComposite in2="hardAlpha" operator="out"/>
<feColorMatrix type="matrix" values="0 0 0 0 0 0 0 0 0 0 0 0 0 0 0 0 0 0 0.25 0"/>
<feBlend mode="normal" in2="BackgroundImageFix" result="effect1_dropShadow_810_98"/>
<feBlend mode="normal" in="SourceGraphic" in2="effect1_dropShadow_810_98" result="shape"/>
</filter>
</defs>
</svg>
