<svg width="350" height="350" viewBox="0 0 350 350" fill="none" xmlns="http://www.w3.org/2000/svg">
<rect width="350" height="350" rx="15" fill="#00F17C"/>
<path d="M83.3238 55.6C85.3078 55.6 87.0251 55.9307 88.4757 56.592C89.9478 57.2533 91.0784 58.192 91.8678 59.408C92.6571 60.624 93.0518 62.064 93.0518 63.728C93.0518 65.3707 92.6571 66.8107 91.8678 68.048C91.0784 69.264 89.9478 70.2027 88.4757 70.864C87.0251 71.504 85.3078 71.824 83.3238 71.824H78.8118V78H73.6278V55.6H83.3238ZM83.0358 67.6C84.5931 67.6 85.7771 67.2693 86.5878 66.608C87.3984 65.9253 87.8038 64.9653 87.8038 63.728C87.8038 62.4693 87.3984 61.5093 86.5878 60.848C85.7771 60.1653 84.5931 59.824 83.0358 59.824H78.8118V67.6H83.0358ZM102.619 60.528C105.286 60.528 107.334 61.168 108.763 62.448C110.193 63.7067 110.907 65.616 110.907 68.176V78H106.235V75.856C105.297 77.456 103.547 78.256 100.987 78.256C99.6646 78.256 98.5126 78.032 97.5312 77.584C96.5713 77.136 95.8353 76.5173 95.3233 75.728C94.8113 74.9387 94.5553 74.0427 94.5553 73.04C94.5553 71.44 95.1526 70.1813 96.3473 69.264C97.5633 68.3467 99.4299 67.888 101.947 67.888H105.915C105.915 66.8 105.585 65.968 104.923 65.392C104.262 64.7947 103.27 64.496 101.947 64.496C101.03 64.496 100.123 64.6453 99.2273 64.944C98.3526 65.2213 97.6059 65.6053 96.9873 66.096L95.1953 62.608C96.1339 61.9467 97.2539 61.4347 98.5553 61.072C99.8779 60.7093 101.233 60.528 102.619 60.528ZM102.235 74.896C103.089 74.896 103.846 74.704 104.507 74.32C105.169 73.9147 105.638 73.328 105.915 72.56V70.8H102.491C100.443 70.8 99.4193 71.472 99.4193 72.816C99.4193 73.456 99.6646 73.968 100.155 74.352C100.667 74.7147 101.361 74.896 102.235 74.896ZM123.436 78.256C121.601 78.256 119.948 77.8827 118.476 77.136C117.025 76.368 115.884 75.312 115.052 73.968C114.241 72.624 113.836 71.0987 113.836 69.392C113.836 67.6853 114.241 66.16 115.052 64.816C115.884 63.472 117.025 62.4267 118.476 61.68C119.948 60.912 121.601 60.528 123.436 60.528C125.249 60.528 126.828 60.912 128.172 61.68C129.537 62.4267 130.529 63.504 131.148 64.912L127.276 66.992C126.38 65.4133 125.089 64.624 123.404 64.624C122.102 64.624 121.025 65.0507 120.172 65.904C119.318 66.7573 118.892 67.92 118.892 69.392C118.892 70.864 119.318 72.0267 120.172 72.88C121.025 73.7333 122.102 74.16 123.404 74.16C125.11 74.16 126.401 73.3707 127.276 71.792L131.148 73.904C130.529 75.2693 129.537 76.336 128.172 77.104C126.828 77.872 125.249 78.256 123.436 78.256ZM151.301 60.784V78H146.309V64.88H139.141V78H134.181V60.784H151.301ZM156.088 60.784H161.048V71.024L169.432 60.784H174.008V78H169.048V67.76L160.696 78H156.088V60.784ZM186.998 78.256C185.164 78.256 183.51 77.8827 182.038 77.136C180.588 76.368 179.446 75.312 178.614 73.968C177.804 72.624 177.398 71.0987 177.398 69.392C177.398 67.6853 177.804 66.16 178.614 64.816C179.446 63.472 180.588 62.4267 182.038 61.68C183.51 60.912 185.164 60.528 186.998 60.528C188.812 60.528 190.39 60.912 191.734 61.68C193.1 62.4267 194.092 63.504 194.71 64.912L190.838 66.992C189.942 65.4133 188.652 64.624 186.966 64.624C185.665 64.624 184.588 65.0507 183.734 65.904C182.881 66.7573 182.454 67.92 182.454 69.392C182.454 70.864 182.881 72.0267 183.734 72.88C184.588 73.7333 185.665 74.16 186.966 74.16C188.673 74.16 189.964 73.3707 190.838 71.792L194.71 73.904C194.092 75.2693 193.1 76.336 191.734 77.104C190.39 77.872 188.812 78.256 186.998 78.256ZM204.432 60.528C207.098 60.528 209.146 61.168 210.576 62.448C212.005 63.7067 212.72 65.616 212.72 68.176V78H208.048V75.856C207.109 77.456 205.36 78.256 202.8 78.256C201.477 78.256 200.325 78.032 199.344 77.584C198.384 77.136 197.648 76.5173 197.136 75.728C196.624 74.9387 196.368 74.0427 196.368 73.04C196.368 71.44 196.965 70.1813 198.16 69.264C199.376 68.3467 201.242 67.888 203.76 67.888H207.728C207.728 66.8 207.397 65.968 206.736 65.392C206.074 64.7947 205.082 64.496 203.76 64.496C202.842 64.496 201.936 64.6453 201.04 64.944C200.165 65.2213 199.418 65.6053 198.8 66.096L197.008 62.608C197.946 61.9467 199.066 61.4347 200.368 61.072C201.69 60.7093 203.045 60.528 204.432 60.528ZM204.048 74.896C204.901 74.896 205.658 74.704 206.32 74.32C206.981 73.9147 207.45 73.328 207.728 72.56V70.8H204.304C202.256 70.8 201.232 71.472 201.232 72.816C201.232 73.456 201.477 73.968 201.968 74.352C202.48 74.7147 203.173 74.896 204.048 74.896ZM217.056 60.784H222.016V67.504H229.504V60.784H234.496V78H229.504V71.568H222.016V78H217.056V60.784ZM239.275 60.784H244.235V71.024L252.619 60.784H257.195V78H252.235V67.76L243.883 78H239.275V60.784ZM278.73 69.456C278.73 69.52 278.698 69.968 278.634 70.8H265.61C265.844 71.8667 266.399 72.7093 267.274 73.328C268.148 73.9467 269.236 74.256 270.538 74.256C271.434 74.256 272.223 74.128 272.906 73.872C273.61 73.5947 274.26 73.168 274.858 72.592L277.514 75.472C275.892 77.328 273.524 78.256 270.41 78.256C268.468 78.256 266.751 77.8827 265.258 77.136C263.764 76.368 262.612 75.312 261.802 73.968C260.991 72.624 260.586 71.0987 260.586 69.392C260.586 67.7067 260.98 66.192 261.77 64.848C262.58 63.4827 263.679 62.4267 265.066 61.68C266.474 60.912 268.042 60.528 269.77 60.528C271.455 60.528 272.98 60.8907 274.346 61.616C275.711 62.3413 276.778 63.3867 277.546 64.752C278.335 66.096 278.73 67.664 278.73 69.456ZM269.802 64.304C268.671 64.304 267.722 64.624 266.954 65.264C266.186 65.904 265.716 66.7787 265.546 67.888H274.026C273.855 66.8 273.386 65.936 272.618 65.296C271.85 64.6347 270.911 64.304 269.802 64.304Z" fill="black" fill-opacity="0.35"/>
<g filter="url(#filter0_d_810_102)">
<circle cx="175.5" cy="216.5" r="99.5" fill="white"/>
<circle cx="175.5" cy="216.5" r="94.5" stroke="#FFA559" stroke-width="10"/>
</g>
<path d="M175 157C175 155.067 173.433 153.5 171.5 153.5C169.567 153.5 168 155.067 168 157L175 157ZM175 234L175 157L168 157L168 234L175 234Z" fill="#FFA559"/>
<path d="M237 234C238.933 234 240.5 232.433 240.5 230.5C240.5 228.567 238.933 227 237 227V234ZM171 234H237V227H171V234Z" fill="#FFA559"/>
<defs>
<filter id="filter0_d_810_102" x="72" y="117" width="207" height="207" filterUnits="userSpaceOnUse" color-interpolation-filters="sRGB">
<feFlood flood-opacity="0" result="BackgroundImageFix"/>
<feColorMatrix in="SourceAlpha" type="matrix" values="0 0 0 0 0 0 0 0 0 0 0 0 0 0 0 0 0 0 127 0" result="hardAlpha"/>
<feOffset dy="4"/>
<feGaussianBlur stdDeviation="2"/>
<feComposite in2="hardAlpha" operator="out"/>
<feColorMatrix type="matrix" values="0 0 0 0 0 0 0 0 0 0 0 0 0 0 0 0 0 0 0.25 0"/>
<feBlend mode="normal" in2="BackgroundImageFix" result="effect1_dropShadow_810_102"/>
<feBlend mode="normal" in="SourceGraphic" in2="effect1_dropShadow_810_102" result="shape"/>
</filter>
</defs>
</svg>
