<svg width="117" height="112" viewBox="0 0 117 112" fill="none" xmlns="http://www.w3.org/2000/svg">
<mask id="path-1-inside-1_899_43" fill="white">
<path d="M0 107C0 109.761 2.23858 112 5 112H69C71.7614 112 74 109.761 74 107V38H48.167C45.4056 38 43.167 35.7614 43.167 33V5H0V107Z"/>
</mask>
<path d="M0 107C0 109.761 2.23858 112 5 112H69C71.7614 112 74 109.761 74 107V38H48.167C45.4056 38 43.167 35.7614 43.167 33V5H0V107Z" fill="#664BFF"/>
<path d="M69 112L69 115H69V112ZM74 107L77 107L74 107ZM74 38V35H77V38H74ZM43.167 5V2H46.167V5H43.167ZM0 5H-3V2H0V5ZM0 107H3C3 108.105 3.89543 109 5 109V112V115C0.581722 115 -3 111.418 -3 107H0ZM5 112V109H69V112V115H5V112ZM69 112L69 109C70.1046 109 71 108.105 71 107L74 107L77 107C77 111.418 73.4183 115 69 115L69 112ZM74 107H71V38H74H77V107H74ZM74 38V41H48.167V38V35H74V38ZM48.167 38V41C43.7487 41 40.167 37.4183 40.167 33H43.167H46.167C46.167 34.1046 47.0624 35 48.167 35V38ZM43.167 33H40.167V5H43.167H46.167V33H43.167ZM43.167 5V8H0V5V2H43.167V5ZM0 5H3V107H0H-3V5H0Z" fill="#664BFF" mask="url(#path-1-inside-1_899_43)"/>
<path d="M50.0665 30.8379C50.0665 31.1071 50.2714 31.3176 50.5322 31.3176L69.6435 31.3173L50.0669 9.8957L50.0665 30.8379Z" fill="#664BFF" stroke="#664BFF" stroke-width="3"/>
<path d="M37.7382 75.8512L99.9933 13.5961C101.36 12.2294 103.576 12.2293 104.943 13.5961L111.687 20.3398C113.054 21.7066 113.053 23.9227 111.687 25.2896L49.4317 87.5447L32.1172 93.1656L37.7382 75.8512Z" fill="white" stroke="#664BFF" stroke-width="3"/>
<line y1="-0.5" x2="16.3184" y2="-0.5" transform="matrix(0.701434 0.712735 -0.701434 0.712735 42.7754 72.3257)" stroke="#664BFF"/>
<line x1="96.1294" y1="17.6027" x2="107.129" y2="28.6022" stroke="#664BFF"/>
<circle cx="51.5" cy="74.5" r="2.5" fill="#664BFF"/>
<path d="M54.6465 70.6465L96.6465 28.6465" stroke="#664BFF" stroke-linecap="round"/>
</svg>
