<svg width="98" height="98" viewBox="0 0 98 98" fill="none" xmlns="http://www.w3.org/2000/svg">
<path d="M45.6012 34.4625C47.5539 36.4151 50.7197 36.4151 52.6723 34.4625L85.0321 2.1027C86.9847 0.150075 90.1506 0.150076 92.1032 2.1027L96.3078 6.30736C98.2605 8.25998 98.2605 11.4258 96.3078 13.3784L63.948 45.7382C61.9954 47.6908 61.9954 50.8567 63.948 52.8093L96.3072 85.1684C98.2598 87.121 98.2598 90.2869 96.3072 92.2395L92.1025 96.4441C90.1499 98.3968 86.984 98.3968 85.0314 96.4441L52.6723 64.085C50.7197 62.1324 47.5539 62.1324 45.6012 64.085L13.2421 96.4441C11.2895 98.3968 8.12369 98.3968 6.17106 96.4441L1.9664 92.2395C0.0137821 90.2869 0.0137824 87.121 1.9664 85.1684L34.3255 52.8093C36.2781 50.8567 36.2781 47.6908 34.3255 45.7382L1.96571 13.3784C0.0130915 11.4258 0.0130919 8.25998 1.96571 6.30736L6.17037 2.1027C8.123 0.150075 11.2888 0.150075 13.2414 2.1027L45.6012 34.4625Z" fill="#FF4D4D"/>
</svg>
