<svg width="165" height="203" viewBox="0 0 165 203" fill="none" xmlns="http://www.w3.org/2000/svg">
<path d="M109.744 185.721L140.442 165.767L79.0463 128.93L84.4184 125.093V100.535L6.90674 140.442L27.6277 158.86L48.3486 145.814L109.744 185.721Z" fill="#FFA559"/>
<path d="M84.4186 100.535L55.2558 81.3488L77.5116 66.7674L55.2558 72.1395L43.7442 64.4651L51.4186 50.6512L28.3953 64.4651L0 46.814L84.4186 0L102.837 10.7442L82.8837 48.3488L145.814 35.3023L165 47.5814L84.4186 100.535Z" fill="#FF4747"/>
<path d="M110.511 185.721L84.4185 202.605V100.535L111.279 82.8837V135.07L138.139 65.2326L165 47.5814V149.651L138.139 167.302V114.349L110.511 185.721Z" fill="#00BBF5"/>
<path d="M52.186 182.651L83.6512 202.605L59.093 134.302L84.4186 100.535L55.2558 81.3489L36.8372 108.209L28.3953 102.837V64.4651L0 46.814V149.651L28.3953 168.07V129.698L36.8372 135.07L52.186 182.651Z" fill="#00F17C"/>
</svg>
