<svg width="114" height="558" viewBox="0 0 114 558" fill="none" xmlns="http://www.w3.org/2000/svg">
<path d="M85.936 90L85.68 49.168L66.224 81.936H52.912L33.456 50.576V90H5.936V0.399994H30.768L59.952 48.144L88.368 0.399994H113.2L113.456 90H85.936Z" fill="#FF4747"/>
<path d="M68.528 199.92L95.024 246H60.976L43.824 213.616H35.376V246H5.168V156.4H35.376V189.808H44.592L63.664 156.4H95.152L68.528 199.92Z" fill="#00F17C"/>
<path d="M5.936 312.4H35.632V358.992L66.48 312.4H94.896V402H65.2V355.536L34.48 402H5.936V312.4Z" fill="#00BBF5"/>
<path d="M82.224 491.824H55.984V558H26.288V491.824H0.0480001V468.4H82.224V491.824Z" fill="#FFA559"/>
</svg>
