<svg width="107" height="89" viewBox="0 0 107 89" fill="none" xmlns="http://www.w3.org/2000/svg">
<g filter="url(#filter0_d_480_163)">
<mask id="path-1-inside-1_480_163" fill="white">
<path d="M0 21.2906C0 19.6337 1.34315 18.2906 3 18.2906H88.453C90.1098 18.2906 91.453 19.6337 91.453 21.2906V65.5897C91.453 67.2466 90.1098 68.5897 88.453 68.5897H3C1.34315 68.5897 0 67.2466 0 65.5897V21.2906Z"/>
</mask>
<path d="M0 21.2906C0 19.6337 1.34315 18.2906 3 18.2906H88.453C90.1098 18.2906 91.453 19.6337 91.453 21.2906V65.5897C91.453 67.2466 90.1098 68.5897 88.453 68.5897H3C1.34315 68.5897 0 67.2466 0 65.5897V21.2906Z" fill="#FFE9D7"/>
<path d="M0 21.2906C0 17.4246 3.13401 14.2906 7 14.2906H84.453C88.319 14.2906 91.453 17.4246 91.453 21.2906V22.2906C91.453 22.2906 90.1098 22.2906 88.453 22.2906H3C1.34315 22.2906 0 22.2906 0 22.2906V21.2906ZM91.453 68.5897H0H91.453ZM0 68.5897V18.2906V68.5897ZM91.453 18.2906V68.5897V18.2906Z" fill="black" fill-opacity="0.1" mask="url(#path-1-inside-1_480_163)"/>
<circle cx="89.6241" cy="68.5898" r="15.8761" fill="#FFE9D7" stroke="#FFAE00" stroke-width="3"/>
<rect x="15.5469" y="24.6923" width="13.7179" height="13.7179" rx="2" fill="black" fill-opacity="0.15"/>
<rect x="31.0938" y="24.6923" width="13.7179" height="13.7179" rx="2" fill="black" fill-opacity="0.15"/>
<rect x="46.6411" y="24.6923" width="13.7179" height="13.7179" rx="2" fill="black" fill-opacity="0.15"/>
<rect x="62.188" y="24.6923" width="13.7179" height="13.7179" rx="2" fill="#FF5252"/>
<rect x="62.188" y="40.2393" width="13.7179" height="13.7179" rx="2" fill="black" fill-opacity="0.15"/>
<rect x="46.6411" y="40.2393" width="13.7179" height="13.7179" rx="2" fill="black" fill-opacity="0.15"/>
<rect x="31.0938" y="40.2393" width="13.7179" height="13.7179" rx="2" fill="#68FF9A"/>
<rect x="15.5469" y="40.2393" width="13.7179" height="13.7179" rx="2" fill="black" fill-opacity="0.15"/>
<rect x="87.3804" y="59.0299" width="1.74359" height="12.7179" rx="0.871795" fill="#FFAE00" stroke="#FFAE00"/>
<rect x="100.098" y="70.0043" width="1.74359" height="12.7179" rx="0.871795" transform="rotate(90 100.098 70.0043)" fill="#FFAE00" stroke="#FFAE00"/>
<path fill-rule="evenodd" clip-rule="evenodd" d="M0 8.65811C0 5.89668 2.23858 3.65811 5 3.65811H86.453C89.2144 3.65811 91.453 5.89669 91.453 8.65811V20.1196H0V8.65811ZM78.6496 11.4316C78.6496 13.7045 76.8071 15.547 74.5342 15.547C72.2613 15.547 70.4188 13.7045 70.4188 11.4316C70.4188 9.15874 72.2613 7.31622 74.5342 7.31622C76.8071 7.31622 78.6496 9.15874 78.6496 11.4316ZM16.9188 15.547C19.1917 15.547 21.0342 13.7045 21.0342 11.4316C21.0342 9.15874 19.1917 7.31622 16.9188 7.31622C14.6459 7.31622 12.8034 9.15874 12.8034 11.4316C12.8034 13.7045 14.6459 15.547 16.9188 15.547Z" fill="#FF5252"/>
<rect x="14.6323" width="4.57265" height="11.8889" rx="2.28632" fill="#FFAE00"/>
<path fill-rule="evenodd" clip-rule="evenodd" d="M16.4614 11.8432C16.6092 11.8731 16.7621 11.8889 16.9187 11.8889C18.1814 11.8889 19.205 10.8653 19.205 9.60256V2.28632C19.205 1.02362 18.1814 0 16.9187 0C16.7621 0 16.6092 0.0157438 16.4614 0.0457349C17.505 0.257572 18.2905 1.18022 18.2905 2.28632V9.60256C18.2905 10.7087 17.505 11.6313 16.4614 11.8432Z" fill="black" fill-opacity="0.15"/>
<rect x="72.248" width="4.57265" height="11.8889" rx="2.28632" fill="#FFAE00"/>
<path fill-rule="evenodd" clip-rule="evenodd" d="M74.0771 11.8432C74.2249 11.8731 74.3778 11.8889 74.5344 11.8889C75.7971 11.8889 76.8207 10.8653 76.8207 9.60256V2.28632C76.8207 1.02362 75.7971 0 74.5344 0C74.3778 0 74.2249 0.0157438 74.0771 0.0457349C75.1207 0.257572 75.9062 1.18022 75.9062 2.28632V9.60256C75.9062 10.7087 75.1207 11.6313 74.0771 11.8432Z" fill="black" fill-opacity="0.15"/>
</g>
<defs>
<filter id="filter0_d_480_163" x="0" y="0" width="107" height="88.9658" filterUnits="userSpaceOnUse" color-interpolation-filters="sRGB">
<feFlood flood-opacity="0" result="BackgroundImageFix"/>
<feColorMatrix in="SourceAlpha" type="matrix" values="0 0 0 0 0 0 0 0 0 0 0 0 0 0 0 0 0 0 127 0" result="hardAlpha"/>
<feOffset dy="3"/>
<feComposite in2="hardAlpha" operator="out"/>
<feColorMatrix type="matrix" values="0 0 0 0 0 0 0 0 0 0 0 0 0 0 0 0 0 0 0.25 0"/>
<feBlend mode="normal" in2="BackgroundImageFix" result="effect1_dropShadow_480_163"/>
<feBlend mode="normal" in="SourceGraphic" in2="effect1_dropShadow_480_163" result="shape"/>
</filter>
</defs>
</svg>
