<svg width="350" height="350" viewBox="0 0 350 350" fill="none" xmlns="http://www.w3.org/2000/svg">
<rect width="350" height="350" rx="15" fill="#00BBF5"/>
<path d="M77.9649 69L77.9329 55.592L71.3409 66.632H69.0369L62.4449 55.848V69H57.5809V46.6H61.8689L70.2529 60.52L78.5089 46.6H82.7969L82.8289 69H77.9649ZM104.745 60.456C104.745 60.52 104.713 60.968 104.649 61.8H91.6254C91.86 62.8667 92.4147 63.7093 93.2894 64.328C94.164 64.9467 95.252 65.256 96.5534 65.256C97.4494 65.256 98.2387 65.128 98.9214 64.872C99.6254 64.5947 100.276 64.168 100.873 63.592L103.529 66.472C101.908 68.328 99.54 69.256 96.4254 69.256C94.484 69.256 92.7667 68.8827 91.2734 68.136C89.78 67.368 88.628 66.312 87.8174 64.968C87.0067 63.624 86.6014 62.0987 86.6014 60.392C86.6014 58.7067 86.996 57.192 87.7854 55.848C88.596 54.4827 89.6947 53.4267 91.0814 52.68C92.4894 51.912 94.0574 51.528 95.7854 51.528C97.4707 51.528 98.996 51.8907 100.361 52.616C101.727 53.3413 102.793 54.3867 103.561 55.752C104.351 57.096 104.745 58.664 104.745 60.456ZM95.8174 55.304C94.6867 55.304 93.7374 55.624 92.9694 56.264C92.2014 56.904 91.732 57.7787 91.5614 58.888H100.041C99.8707 57.8 99.4014 56.936 98.6334 56.296C97.8654 55.6347 96.9267 55.304 95.8174 55.304ZM118.716 51.528C120.316 51.528 121.767 51.9013 123.068 52.648C124.391 53.3733 125.425 54.408 126.172 55.752C126.919 57.0747 127.292 58.6213 127.292 60.392C127.292 62.1627 126.919 63.72 126.172 65.064C125.425 66.3867 124.391 67.4213 123.068 68.168C121.767 68.8933 120.316 69.256 118.716 69.256C116.519 69.256 114.791 68.5627 113.532 67.176V75.208H108.54V51.784H113.308V53.768C114.545 52.2747 116.348 51.528 118.716 51.528ZM117.852 65.16C119.132 65.16 120.177 64.7333 120.988 63.88C121.82 63.0053 122.236 61.8427 122.236 60.392C122.236 58.9413 121.82 57.7893 120.988 56.936C120.177 56.0613 119.132 55.624 117.852 55.624C116.572 55.624 115.516 56.0613 114.684 56.936C113.873 57.7893 113.468 58.9413 113.468 60.392C113.468 61.8427 113.873 63.0053 114.684 63.88C115.516 64.7333 116.572 65.16 117.852 65.16ZM138.855 69.256C137.041 69.256 135.409 68.8827 133.959 68.136C132.529 67.368 131.409 66.312 130.599 64.968C129.788 63.624 129.383 62.0987 129.383 60.392C129.383 58.6853 129.788 57.16 130.599 55.816C131.409 54.472 132.529 53.4267 133.959 52.68C135.409 51.912 137.041 51.528 138.855 51.528C140.668 51.528 142.289 51.912 143.719 52.68C145.148 53.4267 146.268 54.472 147.079 55.816C147.889 57.16 148.295 58.6853 148.295 60.392C148.295 62.0987 147.889 63.624 147.079 64.968C146.268 66.312 145.148 67.368 143.719 68.136C142.289 68.8827 140.668 69.256 138.855 69.256ZM138.855 65.16C140.135 65.16 141.18 64.7333 141.991 63.88C142.823 63.0053 143.239 61.8427 143.239 60.392C143.239 58.9413 142.823 57.7893 141.991 56.936C141.18 56.0613 140.135 55.624 138.855 55.624C137.575 55.624 136.519 56.0613 135.687 56.936C134.855 57.7893 134.439 58.9413 134.439 60.392C134.439 61.8427 134.855 63.0053 135.687 63.88C136.519 64.7333 137.575 65.16 138.855 65.16ZM168.848 51.784V69H163.856V55.88H156.688V69H151.728V51.784H168.848ZM183.778 51.528C185.378 51.528 186.829 51.9013 188.13 52.648C189.453 53.3733 190.488 54.408 191.234 55.752C191.981 57.0747 192.354 58.6213 192.354 60.392C192.354 62.1627 191.981 63.72 191.234 65.064C190.488 66.3867 189.453 67.4213 188.13 68.168C186.829 68.8933 185.378 69.256 183.778 69.256C181.581 69.256 179.853 68.5627 178.594 67.176V75.208H173.602V51.784H178.37V53.768C179.608 52.2747 181.41 51.528 183.778 51.528ZM182.914 65.16C184.194 65.16 185.24 64.7333 186.05 63.88C186.882 63.0053 187.298 61.8427 187.298 60.392C187.298 58.9413 186.882 57.7893 186.05 56.936C185.24 56.0613 184.194 55.624 182.914 55.624C181.634 55.624 180.578 56.0613 179.746 56.936C178.936 57.7893 178.53 58.9413 178.53 60.392C178.53 61.8427 178.936 63.0053 179.746 63.88C180.578 64.7333 181.634 65.16 182.914 65.16ZM195.853 51.784H200.813V62.024L209.197 51.784H213.773V69H208.813V58.76L200.461 69H195.853V51.784ZM233.868 51.784V69H229.42V64.072H225.74L222.476 69H217.164L221.1 63.368C219.905 62.8987 218.988 62.2267 218.348 61.352C217.729 60.456 217.42 59.3787 217.42 58.12C217.42 56.0933 218.145 54.536 219.596 53.448C221.068 52.3387 223.084 51.784 225.644 51.784H233.868ZM225.74 55.848C224.673 55.848 223.863 56.04 223.308 56.424C222.775 56.808 222.508 57.4267 222.508 58.28C222.508 59.1333 222.764 59.7627 223.276 60.168C223.809 60.552 224.609 60.744 225.676 60.744H229.42V55.848H225.74ZM253.13 55.88H247.306V69H242.346V55.88H236.522V51.784H253.13V55.88ZM255.791 51.784H260.751V62.024L269.135 51.784H273.711V69H268.751V58.76L260.399 69H255.791V51.784ZM293.805 51.784V69H289.357V64.072H285.677L282.413 69H277.101L281.037 63.368C279.843 62.8987 278.925 62.2267 278.285 61.352C277.667 60.456 277.357 59.3787 277.357 58.12C277.357 56.0933 278.083 54.536 279.533 53.448C281.005 52.3387 283.021 51.784 285.581 51.784H293.805ZM285.677 55.848C284.611 55.848 283.8 56.04 283.245 56.424C282.712 56.808 282.445 57.4267 282.445 58.28C282.445 59.1333 282.701 59.7627 283.213 60.168C283.747 60.552 284.547 60.744 285.613 60.744H289.357V55.848H285.677Z" fill="black" fill-opacity="0.35"/>
<g filter="url(#filter0_d_810_99)">
<path d="M57 156.787H293V296.861C293 305.145 286.284 311.861 278 311.861H72C63.7157 311.861 57 305.145 57 296.861V156.787Z" fill="#FFE6B7"/>
<path d="M63 162.787H287V296.861C287 301.832 282.971 305.861 278 305.861H72C67.0294 305.861 63 301.832 63 296.861V162.787Z" stroke="black" stroke-opacity="0.1" stroke-width="12"/>
<path d="M170.788 199.459C171.988 195.78 177.193 195.78 178.393 199.459L185.925 222.546C186.462 224.192 187.997 225.306 189.728 225.306H214.066C217.945 225.306 219.553 230.272 216.411 232.546L196.748 246.775C195.341 247.793 194.752 249.604 195.291 251.256L202.808 274.299C204.009 277.981 199.798 281.05 196.66 278.78L176.936 264.506C175.536 263.494 173.645 263.494 172.246 264.506L152.522 278.78C149.384 281.05 145.173 277.981 146.374 274.299L153.891 251.256C154.43 249.604 153.841 247.793 152.433 246.775L132.77 232.546C129.628 230.272 131.237 225.306 135.115 225.306H159.454C161.185 225.306 162.72 224.192 163.256 222.546L170.788 199.459Z" fill="#FFA559"/>
<path fill-rule="evenodd" clip-rule="evenodd" d="M72 120.059C63.7157 120.059 57 126.775 57 135.059V187.802H293V135.059C293 126.775 286.284 120.059 278 120.059H72ZM276.611 143.32C276.611 148.955 272.025 153.522 266.368 153.522C260.711 153.522 256.125 148.955 256.125 143.32C256.125 137.685 260.711 133.118 266.368 133.118C272.025 133.118 276.611 137.685 276.611 143.32ZM93.875 143.32C93.875 148.955 89.289 153.522 83.6319 153.522C77.9749 153.522 73.3889 148.955 73.3889 143.32C73.3889 137.685 77.9749 133.118 83.6319 133.118C89.289 133.118 93.875 137.685 93.875 143.32Z" fill="#FF4747"/>
<rect x="76.666" y="107" width="13.1111" height="35.0957" rx="6.55556" fill="#FFA559"/>
<rect x="259.402" y="107" width="13.1111" height="35.0957" rx="6.55556" fill="#FFA559"/>
<path fill-rule="evenodd" clip-rule="evenodd" d="M266.777 141.994C270.011 141.591 272.513 138.833 272.513 135.49V113.505C272.513 110.162 270.011 107.403 266.777 107V141.994Z" fill="black" fill-opacity="0.1"/>
<path fill-rule="evenodd" clip-rule="evenodd" d="M84.043 141.994C87.2768 141.591 89.7791 138.833 89.7791 135.49V113.505C89.7791 110.162 87.2768 107.403 84.043 107V141.994Z" fill="black" fill-opacity="0.1"/>
</g>
<defs>
<filter id="filter0_d_810_99" x="44.4" y="98.4" width="261.2" height="230.061" filterUnits="userSpaceOnUse" color-interpolation-filters="sRGB">
<feFlood flood-opacity="0" result="BackgroundImageFix"/>
<feColorMatrix in="SourceAlpha" type="matrix" values="0 0 0 0 0 0 0 0 0 0 0 0 0 0 0 0 0 0 127 0" result="hardAlpha"/>
<feOffset dy="4"/>
<feGaussianBlur stdDeviation="6.3"/>
<feComposite in2="hardAlpha" operator="out"/>
<feColorMatrix type="matrix" values="0 0 0 0 0 0 0 0 0 0 0 0 0 0 0 0 0 0 0.25 0"/>
<feBlend mode="normal" in2="BackgroundImageFix" result="effect1_dropShadow_810_99"/>
<feBlend mode="normal" in="SourceGraphic" in2="effect1_dropShadow_810_99" result="shape"/>
</filter>
</defs>
</svg>
